<svg width="860" height="469" viewBox="0 0 860 469" fill="none" xmlns="http://www.w3.org/2000/svg">
<path d="M582.5 23L744.88 299.75H420.12L582.5 23Z" fill="#937777"/>
<path d="M684.71 0L844.21 297H518L684.71 0Z" fill="#BD9A9A"/>
<path d="M482 101L613.636 300.5H350.364L482 101Z" fill="#DFB8B8"/>
<path d="M0 289L164 298L283 289H379L492 298L615 289L860 279V469H0V289Z" fill="#BAB1B1"/>
<path d="M198.068 308.76C200.284 313.931 195.289 315.069 189.716 318.725C180.692 318.725 181.001 315.463 181.001 308.76C183.789 303.647 176.501 307.302 187.289 305.475C191.789 309.587 195.289 302.276 198.068 308.76Z" fill="#407E23"/>
<path d="M214.754 328.319C212.537 333.491 217.533 334.629 223.106 338.284C232.13 338.284 231.82 335.023 231.82 328.319C229.033 323.207 236.32 326.862 225.533 325.034C221.033 329.147 217.533 321.836 214.754 328.319Z" fill="#407E23"/>
<path d="M218.386 338.741C218.386 369.526 219.312 389 206.886 389C194.459 389 194.886 372.552 194.886 338.741C191.886 293.509 191.386 283 206.886 283C224.386 290.767 218.386 298.991 218.386 338.741Z" fill="#407E23"/>
<path d="M1 374.683L81 395.532L119 407.446L158 395.532L240 374.683L301 356.813L362 351.849L415 356.813L454 362.77L506 368.727H558L615 360.288L672 345.892L729 331L764 320L796 331L829 345.892L860 351.849V469H1V374.683Z" fill="#C4C4C4"/>
<path d="M715.141 305.934C715.141 310.352 714.403 313.934 711.641 313.934C708.88 313.934 708.141 310.352 708.141 305.934C705.641 297.394 706.141 294.894 711.641 297.394C718.227 290.059 719.641 295.394 715.141 305.934Z" fill="#A44F20"/>
<path d="M728.181 365.969C728.181 405.934 741.533 433.469 716.681 433.469C691.828 433.469 692.681 405.469 701.681 365.969C693.681 323.969 688.328 305.434 713.181 305.434C738.033 305.434 728.181 326.004 728.181 365.969Z" fill="#3D800A"/>
</svg>
