<svg width="397" height="592" viewBox="0 0 397 592" xmlns="http://www.w3.org/2000/svg">
<defs>
    <linearGradient id="linear" x1="0%" y1="0%" x2="100%" y2="0%">
      <stop offset="0%"   stop-color="#05a"/>
      <stop offset="100%" stop-color="#0a5"/>
    </linearGradient>
</defs>
<path fill="url(#linear)" d="M390.633 379.216C393.005 375.687 398.42 367.534 395.914 363.091C395.869 363.002 395.806 362.912 395.735 362.822C392.89 359.35 373.831 357.746 373.083 359.549C374.068 357.178 372.828 323.523 370.91 323.67C364.12 324.175 356.607 326.47 350.24 328.759C343.277 331.252 339.179 336.891 332.606 339.448C331.18 335.452 328.393 331.974 324.211 331.648C324.141 331.642 324.07 331.642 324 331.642C315.728 331.642 308.535 343.271 298.286 373.723C298.433 371.383 298.778 368.889 299.13 366.345C299.955 360.348 299.82 354.53 298.798 348.949C300.933 348.444 303.062 347.74 305.121 346.577C309.877 343.681 313.637 338.873 315.075 333.4C316.507 327.96 315.951 321.981 313.163 317.007C311.757 314.424 309.73 312.205 307.346 310.505C305.626 309.29 301.368 308.631 300.166 307.327C297.359 304.264 301.962 300.825 302.192 297.622C302.416 294.566 301.042 291.663 299.385 289.681C299.289 289.566 299.161 289.496 299.059 289.387C299.699 289.502 300.331 289.675 300.977 289.739C306.559 290.072 312.485 288.582 316.922 284.439C319.575 282.061 321.25 278.57 321.697 275.054C322.643 267.74 322.279 268.84 329.568 268.891C334.343 268.852 339.234 267.069 343.077 263.904C346.99 260.797 349.739 256.334 351.241 251.558C352.603 246.641 352.679 241.808 351.765 236.866C350.698 232.013 348.287 227.122 344.457 223.625C339.694 219.277 334.848 219.06 329.171 217.148C323.34 215.179 327.349 212.724 328.953 208.415C330.231 204.969 330.59 201.05 330.474 197.393C330.308 192.221 329.311 187.125 327.451 182.177C325.436 177.324 322.502 172.491 317.88 169.013C313.136 165.707 307.939 164.039 302.331 163.955C296.718 163.885 291.054 166.519 287.735 170.694C284.474 174.696 284.397 177.944 278.912 175.201C275.837 173.654 273.369 170.393 269.962 169.53C262.781 167.67 255.091 170.681 250.437 175.713C245.738 180.904 243.544 187.355 243.097 193.761C242.694 200.276 244.734 207.123 248.678 212.059C253.691 218.465 257.431 219.591 249.938 225.236C247.335 227.199 245.565 230.299 244.337 233.24C242.246 238.265 242.093 243.642 242.809 248.751C243.397 252.395 244.651 255.931 246.542 259.204C241.594 265.706 236.281 273.781 233.525 277.368C230.507 281.351 227.816 288.243 225.514 280.699C224.395 277.035 224.517 273.008 224.088 269.229C223.276 262.158 221.901 255.131 219.951 248.291C216.659 236.745 209.882 226.528 208.558 214.387C208.097 210.161 205.131 202.975 207.266 198.953C209.568 194.599 219.114 196.581 223.691 195.149C231.139 192.822 237.879 188.066 242.436 181.717C244.783 178.444 246.54 174.767 247.474 170.842C248.574 166.239 247.966 160.012 254.52 161.77C260.171 163.49 267.632 161.885 272.21 158.228C276.992 154.853 280.585 149.578 282.011 143.958C283.348 138.319 283.04 132.559 281.193 127.489C279.077 121.677 275.491 116.608 270.242 113.219C268.451 112.062 263.593 111.115 262.614 109.377C261.143 106.769 264.571 104.467 265.741 102.351C269.046 96.3348 268.842 88.6238 265.799 82.7678C262.87 76.8098 257.717 72.4298 251.855 70.1018C248.933 68.9828 245.66 68.4458 242.68 68.4208C234.107 67.9348 224.236 70.9588 218.296 77.4478C215.546 80.4338 213.226 73.5288 209.383 70.1148C205.765 66.9058 200.925 65.1598 196.15 64.8268C189.807 64.3858 183.305 65.9138 177.807 69.0658C176.854 69.6158 175.467 72.7418 173.952 70.9588C172.827 69.6288 175.167 68.0118 176.196 67.6338C181.157 65.8308 185.428 65.9778 189.82 62.2828C193.458 59.0668 196.419 54.1178 196.859 48.8688C197.32 43.7158 196.035 37.8658 191.559 33.9338C186.387 29.3368 180.518 32.2518 181.701 24.2158C182.302 20.1118 181.426 15.6868 179.221 11.9858C177.085 8.20083 173.601 5.27283 169.707 3.34183C165.673 1.48783 161.537 0.81683 157.17 0.98883C152.848 1.22483 148.321 2.72083 144.837 5.58583C141.372 8.44983 138.904 12.2738 137.785 16.2948C135.298 24.6378 132.459 17.5928 127.21 15.7768C124.998 15.0088 122.696 14.5878 120.497 14.2998C116.035 13.8518 111.508 14.0438 107.033 15.1368C102.596 16.3708 98.1837 18.2318 94.5587 22.1888C91.4127 25.7108 89.3548 30.4868 89.2328 35.2758C88.9968 40.0648 90.6398 44.7698 93.5098 48.3178C94.3988 49.4178 96.2017 50.4728 96.6487 51.8728C97.2117 53.6308 95.2738 54.2198 94.0598 55.1908C93.7148 54.1488 93.3118 53.1198 92.7878 52.0838C91.7778 50.2558 90.2627 48.2348 87.8907 47.0648C85.2757 45.7728 78.5247 48.0938 81.8687 43.9578C82.9877 42.5708 84.4068 40.1478 85.0908 38.5748C87.0278 34.0988 87.0337 28.4288 85.6017 23.8248C84.0287 18.5818 78.8058 13.9338 73.2818 13.2118C70.5128 12.7388 67.9687 12.8728 65.4247 13.3078C62.8287 13.7748 60.2528 14.7398 58.0528 16.2238C53.5838 19.1708 50.6358 23.6278 49.0948 28.1918C47.8358 31.7598 47.4137 40.3968 43.6797 37.6928C39.4157 34.5918 36.5067 34.0738 33.0287 32.7958C28.2017 31.0308 22.7867 30.2378 17.1797 31.6388C11.8157 33.1538 6.89876 36.7658 4.04776 41.6578C1.20976 46.5168 0.141742 52.4238 1.48474 57.9608C2.30274 61.4898 4.14474 64.5328 6.57974 67.1798C7.97374 68.6948 11.5478 70.5808 11.4708 72.9788C11.4068 74.7748 7.57075 77.4098 6.84775 79.5768C5.81175 82.4668 6.35575 85.6318 7.41675 87.9838C8.51675 90.3688 10.1148 92.2038 11.8408 93.7258C15.3888 96.7048 19.4997 98.4438 24.2307 98.8278C26.5067 99.0138 30.1888 97.3188 32.0948 99.7998C33.7508 101.942 32.1398 105.739 32.3318 108.258C32.5878 111.583 34.6018 115.099 34.0448 118.456C33.3158 122.887 29.8827 122.784 26.7437 125.08C23.9687 126.979 21.7698 129.325 19.8198 131.678C17.9468 133.992 16.2147 136.652 14.8077 139.504C12.0647 145.162 10.6708 151.696 11.4128 158.167C12.2188 164.56 14.8468 171.018 19.7628 175.486C22.8888 178.542 26.9737 180.601 31.2517 181.425C34.6847 182.084 39.4867 181.246 41.6917 184.718C43.8787 188.151 43.2068 193.553 45.4828 197.434C47.4718 201.084 50.6358 204.205 53.8268 206.666C60.2588 211.621 67.7898 214.306 75.5518 215.368C83.2688 216.276 91.7848 215.374 98.8748 210.777C102.385 208.482 105.326 205.42 107.34 201.75C108.932 198.803 110.166 195.542 109.52 191.553C108.887 187.589 116.84 193.004 120.791 193.95C124.32 194.794 128.546 194.046 131.461 193.272C137.88 191.782 144.331 188.707 149.567 183.592C151.677 181.546 153.365 179.059 154.772 176.406C155.494 177.007 156.249 177.659 157.042 178.369C184.693 203.341 203.285 223.973 211.231 260.633C223.82 318.71 187.141 376.877 166.918 427.283C165.052 431.937 163.044 436.521 161.011 441.086C161.292 434.169 161.1 426.829 160.103 419.451C159.547 415.282 158.754 411.056 157.961 406.837C155.193 392.017 153.722 376.321 164.879 364.084C170.569 357.831 185.779 356.56 186.469 345.831C185.126 346.055 183.419 345.435 182.089 345.71C185.139 339.847 189.18 335.787 188.502 328.46L188.118 324.298L183.93 324.388C183.137 324.401 182.357 324.305 181.634 324.215C181.423 324.19 181.199 324.157 180.983 324.132C182.849 316.549 184.147 306.857 179.742 299.741C175.197 292.388 167.499 297.279 160.562 299.306C155.543 300.776 151.65 303.2 147.616 306.913C149.937 300.213 153.172 292.726 157.34 284.402C161.7 275.694 163.861 267.715 161.413 258.004C158.357 259.04 155.697 260.645 152.443 260.389C151.504 255.984 147.834 248.516 142.291 249.297C130.667 250.921 123.999 266.08 120.349 275.331C120.336 274.014 120.324 272.665 120.311 271.297C120.164 254.457 119.972 231.389 99.3727 228.327L94.4688 227.598L94.2328 232.559C94.1748 233.889 93.5288 235.628 92.8448 237.456C92.7678 237.654 92.6918 237.846 92.6208 238.044C85.0508 232.737 76.5988 227.022 70.6978 230.89C67.6668 232.878 66.8678 236.311 66.9388 239.77C63.5888 241.573 60.7628 245.134 60.2128 246.573C58.3208 251.406 61.6957 257.781 65.3087 263.886L66.0757 265.191C66.8937 266.649 67.8718 268.196 68.9658 269.819C64.8618 268.547 57.2468 267.019 53.8708 271.654C52.4258 273.649 52.2027 276.014 53.2057 278.738C50.3347 280.074 47.4638 282.274 46.8118 285.944C45.3928 293.872 55.9418 300.77 64.4068 306.306C65.7558 307.189 66.9638 307.982 67.9098 308.653C69.6868 309.906 71.6947 311.256 73.8297 312.7C78.7657 316.013 84.5448 319.899 89.6088 324.125C87.6588 323.384 56.1457 315.629 57.5587 320.359C59.0167 325.231 62.1238 329.393 63.7028 334.035C59.6618 335.845 52.3487 340.396 52.3737 345.345C52.4127 351.585 62.2577 355.785 66.7777 357.928C73.5487 361.144 78.6438 363.63 84.5258 368.425C99.6398 380.739 115.496 391.736 127.496 407.4C141.28 425.372 148.511 445.939 143.934 468.585C139.017 438.958 121.18 416.779 94.8517 409.005C93.1187 408.507 91.2648 409.063 90.1208 410.456C88.9768 411.837 88.7717 413.774 89.5967 415.373C90.7217 417.54 90.7278 419.106 90.7418 421.485C90.7418 421.581 90.7418 421.664 90.7418 421.759C89.9618 421.714 89.1947 421.701 88.4587 421.683C86.6427 421.644 84.9227 421.599 83.5107 421.229C81.4587 420.692 79.3097 421.664 78.3637 423.569C77.4107 425.474 77.9287 427.776 79.5977 429.092C83.5557 432.199 84.2967 433.971 84.5147 434.079C83.0887 433.356 71.2358 437.001 69.9188 438.196C60.9298 446.322 87.1687 456.142 91.9507 457.759C99.2587 460.24 106.227 463.916 113.209 466.985C119.34 469.683 127.556 472.982 131.801 478.379C136.871 484.798 130.65 494.573 130.836 502.092C130.964 507.316 132.786 512.392 131.897 517.621C130.996 522.902 128.029 528.567 126.028 533.516C122.007 543.47 116.707 553.514 114.891 564.198C113.76 570.808 115.818 586.761 121.898 590.878C126.585 594.049 129.116 580.802 129.525 578.532C130.1 575.336 130.791 572.151 131.501 568.961C141.973 541.904 171.184 524.374 193.204 511.185C213.432 499.082 238.59 498.302 261.401 500.936C271.874 502.151 282.071 504.849 292.511 506.21C301.199 507.349 314.818 513.064 322.65 508.288C329.44 504.158 320.835 501.428 323.647 496.959C325.175 494.523 338.161 493.749 341.267 492.586C348.217 489.971 353.3 488.148 349.496 480.528C346.99 475.508 343.684 470.407 339.286 467.031C337.298 465.51 325.464 458.4 323.341 459.66C333.82 453.445 350.481 462.294 362.584 457.787C367.545 455.939 376.163 452.032 378.184 446.707C380.403 440.857 375.358 439.61 373.094 434.834C370.154 428.607 374.226 428.467 378.995 424.355C381.488 422.207 391.29 415.187 390.248 411.645C389.257 408.25 370.562 401.383 371.215 399.517C373.64 392.514 386.107 385.942 390.633 379.216ZM264.16 119.644C274.62 126.185 275.073 141.446 265.196 148.6C262.472 150.621 260.151 151.222 256.775 150.883C253.413 150.467 249.602 148.658 245.702 146.715C242.634 145.059 239.564 143.39 236.496 141.741C231.669 139.171 230.479 138.525 230.448 132.848C230.434 130.757 228.849 125.355 232.813 126.109C234.744 126.473 232.921 130.981 235.959 130.265C238.766 129.6 237.826 123.731 239.252 121.883C241.643 118.782 245.44 117.568 249.046 116.576C254.244 115.143 259.608 116.792 264.16 119.644ZM219.719 89.0068C221.752 81.4628 226.131 75.1018 234.648 74.1808C239.603 73.6438 244.916 74.2068 248.719 76.7888C256.788 81.4878 261.692 90.9568 258.341 98.7118C256.743 102.573 253.067 106.218 249.014 109.568C246.278 111.825 237.781 116.447 235.996 120.814C235.536 120.514 234.961 120.386 234.392 120.514C233.26 120.77 232.557 121.901 232.819 123.058C232.896 123.416 227.135 121.997 226.509 121.307C224.706 119.357 225.556 117.579 227.737 116.179C227.979 116.921 228.587 117.631 229.405 117.809C229.552 117.841 229.693 117.854 229.841 117.854C230.806 117.854 231.682 117.183 231.887 116.192L232.583 112.944C232.813 111.806 232.091 110.7 230.966 110.457C229.841 110.227 228.728 110.943 228.479 112.074L228.358 112.662C226.127 113.532 224.126 114.708 222.265 116.006C219.771 117.732 218.531 108.391 218.429 107.228C217.961 101.838 218.089 95.0418 219.719 89.0068ZM216.197 123.576C216.637 122.847 217.342 122.342 219.029 122.566C221.67 122.918 223.018 126.332 223.869 128.435C224.354 129.624 226.369 133.077 225.506 134.419C223.869 136.982 220.686 133.479 220.282 133.837C220.877 133.306 221.286 132.565 221.324 131.708C221.401 129.784 220.761 127.974 219.521 126.632C218.389 125.424 216.509 125.347 215.295 126.459C214.08 127.578 213.997 129.47 215.122 130.685C215.326 130.909 215.351 131.235 215.346 131.472C215.308 132.616 215.928 133.588 216.835 134.131C215.531 136.676 209.905 140.192 207.878 137.168C207.482 136.561 207.654 135.73 207.667 134.969C207.687 134.969 207.705 134.975 207.719 134.975C208.812 134.975 209.989 134.732 211.184 134.24C212.718 133.62 213.448 131.874 212.821 130.34C212.201 128.819 210.449 128.096 208.921 128.71C207.547 129.266 207.304 128.857 207.227 128.729C206.345 127.342 204.498 126.907 203.104 127.796C201.704 128.671 201.282 130.52 202.158 131.92C202.759 132.873 203.539 133.595 204.428 134.107C204.159 136.594 203.123 139.893 201.097 136.396C199.723 134.037 199.211 127.861 200.63 125.489C201.742 123.629 205.495 121.065 207.694 120.847C208.539 120.77 209.446 120.892 210.374 121.147L207.33 121.678C205.7 121.959 204.613 123.507 204.894 125.137C205.15 126.588 206.409 127.611 207.834 127.611C208.007 127.611 208.18 127.598 208.353 127.566L213.372 126.69C215.461 126.332 215.532 124.688 216.197 123.576ZM198.858 72.5628C213.268 77.0838 213.396 93.1748 214.209 105.56C214.298 106.852 215.417 114.293 211.926 112.996C211.242 112.74 209.977 108.169 210.488 107.811C210.884 107.517 211.281 107.415 211.735 107.229C212.809 106.807 213.346 105.599 212.918 104.519C212.503 103.445 211.281 102.895 210.207 103.33C208.891 103.854 206.774 104.718 205.789 105.14C204.728 105.607 204.249 106.834 204.702 107.895C205.195 109.014 206.423 109.327 207.522 109.04C209.107 112.409 206.493 114.839 203.513 113.496C202.567 113.074 196.48 111.38 196.416 111.188C195.859 109.692 194.971 108.375 193.699 107.384C192.778 106.674 191.468 106.834 190.758 107.755C190.048 108.663 190.215 109.98 191.122 110.69C192.612 111.847 192.887 113.542 192.861 114.756C192.836 115.906 193.75 116.865 194.952 116.891C196.084 116.891 197.023 115.983 197.043 114.845C197.056 114.64 197.011 114.461 196.998 114.269C196.998 114.225 200.232 115.516 200.578 116.219C201.287 117.677 200.731 118.789 199.638 119.94C197.215 122.491 192.849 121.73 189.761 120.963C184.429 119.639 179 116.168 175.414 112.031C169.193 104.858 168.164 95.4658 170.804 87.5248C174.467 76.5078 185.176 68.2728 198.858 72.5628ZM185.508 40.2638C186.991 42.0608 187.873 44.9568 187.433 47.8268C186.544 53.6448 181.142 59.4948 175.362 61.0928C175.203 61.1378 175.043 61.1758 174.877 61.2148C173.374 61.5668 161.4 62.8258 161.118 60.1148C161.029 59.2588 162.684 59.2138 163.062 58.6828C164.532 56.5478 160.159 53.4918 158.401 55.9088C156.79 55.3078 156.253 53.6198 157.992 52.7378C158.772 52.3418 160.236 52.4948 161.099 52.3348C161.412 53.0058 162.052 53.5048 162.966 53.5498C164.066 53.5498 164.986 52.6928 165.05 51.5808C165.12 50.3408 164.954 49.2028 164.545 48.1088C164.142 47.0278 162.934 46.4718 161.853 46.8878C161.239 47.1178 160.824 47.6108 160.632 48.1918C160.524 48.5118 158.759 48.4988 158.484 48.4348C157.397 48.1728 160.632 45.6798 160.958 45.5188C162.896 44.5918 164.788 43.5818 166.75 42.6928C170.496 40.9918 174.364 39.5088 178.321 38.3708C181.391 37.8088 184.089 38.5058 185.508 40.2638ZM153.702 96.8958C155.409 96.7738 157.103 96.5118 158.772 96.0518C158.529 97.7588 158.42 99.4978 158.465 101.262C158.644 106.447 160.479 111.613 163.477 115.909C161.655 116.414 159.846 117.04 158.075 117.807C158.216 117.034 158.375 116.254 158.42 115.467C158.823 108.891 157.058 102.465 153.702 96.8958ZM162.512 83.3938C158.247 87.1788 153.44 85.6508 148.248 84.9088C144.348 84.3528 140.557 82.4478 139.06 78.5858C138.798 77.9208 138.523 76.2908 138.696 74.7498C138.837 73.1698 139.233 71.4828 139.668 69.7308C140.224 67.4168 140.857 63.2348 142.788 61.5988C143.67 60.8318 145.307 60.6458 146.407 61.0038C148.414 61.6688 148.05 62.9798 147.922 64.8848C146.963 64.8458 146.043 65.4408 145.793 66.4188C145.518 67.5378 146.196 68.6828 147.314 68.9578C148.088 69.1558 149.744 69.5138 150.767 69.7248C150.914 69.7568 151.055 69.7628 151.195 69.7628C152.16 69.7628 153.036 69.0918 153.235 68.0948C153.471 66.9628 152.743 65.8638 151.611 65.6268C151.406 65.5878 151.125 65.5178 150.882 65.4668L150.902 65.1918C150.972 64.0468 151.004 62.9158 151.004 61.7708C151.72 61.5018 151.893 60.7798 152.667 60.5878C153.434 60.4018 154.368 60.9268 155.013 61.2528C158.561 63.0488 162.544 66.4188 164.354 70.0368C164.45 70.2418 164.552 70.4458 164.648 70.6638C165.587 72.6588 166.84 75.4648 166.604 77.7088C166.341 80.1588 164.231 81.8658 162.512 83.3938ZM141.075 28.9598C141.408 25.3918 142.245 21.8628 143.824 18.6278C146.65 12.8488 151.726 9.56283 157.634 9.33783C161.777 9.18483 166.061 9.98983 169.634 12.1578C173.572 14.5428 176.136 19.9318 176.271 24.4648C176.399 28.5688 173.663 31.8368 170.779 34.4318C168.663 36.3308 164.38 40.4668 161.439 40.6528C159.521 40.7678 159.099 37.8588 159.764 37.8208C160.723 37.7628 161.567 37.0028 161.676 35.9988C161.803 34.8478 160.979 33.8118 159.828 33.6848C158.403 33.5248 152.751 33.4228 154.1 36.4598C154.49 37.3418 155.513 37.2008 156.076 37.8278C156.932 38.7668 156.626 39.8608 156.287 41.0048C156.114 40.9278 155.993 40.8068 155.788 40.7488C154.164 40.5248 153.301 42.0088 152.022 41.8228C151.057 41.6818 150.379 40.2628 150.002 39.5148C149.023 37.5138 148.697 35.2828 148.045 33.1798C148.799 33.0578 149.477 32.5398 149.72 31.7478C150.053 30.6418 149.432 29.4718 148.32 29.1388C146.427 28.5448 144.561 29.0108 143.174 30.3858C142.342 31.1908 142.33 32.5148 143.135 33.3398C143.544 33.7618 144.088 33.9728 144.631 33.9728C144.803 33.9728 144.938 33.8198 145.098 33.7808C145.526 35.1938 146.249 37.2978 146.99 39.4068C146.581 38.2428 143.602 38.5248 142.764 38.3068C141.594 37.9938 141.293 37.5968 140.948 36.2928C140.32 33.9408 140.851 31.3318 141.075 28.9598ZM139.361 51.5218C139.623 51.6368 139.891 51.6818 140.16 51.6818C140.985 51.6818 141.765 51.1958 142.098 50.3898C142.156 50.2488 142.303 49.8778 143.44 50.1398C144.54 50.3698 145.684 49.6858 145.94 48.5548C146.196 47.4298 145.486 46.3108 144.361 46.0488C142.986 45.7288 141.81 46.2728 140.787 45.6458C141.72 44.5908 143.625 43.8428 145.077 44.0348C147.494 44.3608 149.444 45.4598 147.763 48.0688C147.123 49.0278 147.386 50.3258 148.357 50.9648C148.709 51.1948 149.112 51.3038 149.502 51.3038C150.186 51.3038 150.857 50.9778 151.254 50.3638C151.977 49.2708 152.219 47.9148 151.932 46.5408C151.779 45.8118 151.242 45.2938 150.596 45.0508C150.609 44.5848 150.679 44.1618 150.999 43.9128C152.648 42.6148 154.791 44.7378 154.433 46.5728C154.113 48.1518 152.444 53.5798 150.264 53.2728C149.069 53.1128 148.205 51.5598 146.933 51.2398C145.859 50.9708 143.902 50.8818 142.937 51.5598C141.46 52.5958 141.946 53.5358 143.365 53.8618C144.075 54.0148 146.619 53.5418 146.204 55.0118C145.999 55.7348 144.26 55.9078 143.666 55.9648C141.69 56.1568 140.814 55.0188 139.574 53.5998L139.178 53.5168C137.861 53.2418 137.157 53.2358 136.845 52.2388C136.666 51.6698 136.64 49.9248 136.947 49.4258C137.999 47.7178 138.274 51.0688 139.361 51.5218ZM126.414 68.1388C125.627 68.9948 125.698 70.3128 126.548 71.0928C126.951 71.4568 127.456 71.6358 127.961 71.6358C128.524 71.6358 129.099 71.4058 129.508 70.9518C130.557 69.8008 131.803 67.4348 133.581 67.2818C137.123 66.9878 135.998 71.0408 135.301 73.0808C133.677 77.7988 130.8 79.9408 126.024 80.9128C120.392 82.0638 114.139 81.8208 108.634 80.0948C104.849 79.0328 101.23 76.9748 99.1837 74.1868C94.5297 68.7078 96.8627 60.8758 104.791 58.3828C109.503 56.7588 114.669 56.8608 119.592 56.8168C124.368 56.7658 130.499 55.4098 134.968 57.5008C136.023 57.9998 138.299 59.2718 137.839 60.7098C137.27 62.4808 132.68 64.1108 131.12 64.6418C130.89 63.5168 129.79 62.8138 128.678 63.0048C127.547 63.2288 126.805 64.3288 127.029 65.4598C127.169 66.2078 127.182 67.2818 126.414 68.1388ZM95.1698 35.8718C95.8738 32.5088 97.4008 29.3948 99.9778 27.0488C102.107 25.1048 105.457 23.3918 108.929 22.6628C112.401 21.7548 116.179 21.4488 119.881 21.6658C123.724 21.7938 127.023 22.4718 129.765 24.2548C132.802 26.2238 134.809 29.6318 135.858 33.0258C136.395 34.7648 136.709 36.5428 136.766 38.3518C136.83 40.3208 136.19 40.9798 135.564 42.7188C135.378 43.2238 135.308 43.7168 135.276 44.2088C133.671 43.9208 132.111 44.1008 130.475 44.3308C130.091 43.4158 129.12 42.8538 128.141 43.0588C127.01 43.3018 126.287 44.4138 126.53 45.5458C126.741 46.5238 127.348 47.9558 127.949 48.8698C128.351 49.4838 129.016 49.8158 129.707 49.8158C131.12 49.8158 131.874 48.5438 131.612 47.2458C134.042 47.0028 134.061 50.0198 132.674 51.1778C131.715 51.9768 127.425 52.8528 126.28 51.9578C125.212 51.1068 126.331 49.4388 125.571 48.4858C124.631 47.3098 122.854 48.3068 121.658 47.7178C120.622 47.2068 119.369 47.6288 118.858 48.6638C118.539 49.3098 118.545 50.0828 119.031 50.6328C119.191 50.8188 120.482 51.2848 120.469 51.2088C120.757 52.5388 107.855 50.8568 106.474 50.6078C102.529 49.8918 98.8717 47.5768 96.7747 44.3358C95.2207 41.9328 94.5178 39.0228 95.1698 35.8718ZM89.2938 76.2138C89.9398 77.6138 90.7317 78.9308 91.6657 80.0948C94.0827 83.0298 97.0428 85.1008 100.208 86.6028C99.0698 87.3958 97.9898 88.2718 96.9788 89.2368C95.9998 90.1768 95.1568 91.2318 94.4278 92.3438C94.4478 91.1928 94.4027 90.0168 94.2617 88.7768C93.7697 84.3338 90.1768 79.9028 86.2578 78.0998C86.1108 78.0298 85.9828 77.9848 85.8418 77.9208C87.0058 77.5118 88.1628 76.9298 89.2938 76.2138ZM98.3217 138.907C97.7007 137.846 96.3528 136.983 95.1248 137.053C91.6408 137.245 85.9688 144.732 92.0938 144.936C90.7387 147.04 88.6667 149.584 85.8347 148.433C82.4337 147.058 80.6818 143.874 78.0608 141.503C76.3668 139.962 74.4738 135.339 78.1438 134.598C78.3548 134.56 79.7228 135.225 81.0908 135.896C80.5478 136.65 80.3178 137.616 80.6308 138.569C81.2508 140.403 82.4918 141.861 84.1218 142.673C84.5568 142.884 85.0108 142.986 85.4578 142.986C86.5508 142.986 87.6127 142.379 88.1367 141.318C88.8657 139.841 88.2588 138.051 86.7878 137.316C86.5258 137.188 86.3787 136.894 86.3087 136.664C85.8547 135.321 84.5318 134.56 83.1768 134.701C81.9238 131.67 84.4048 129.394 87.3838 130.826C87.7098 130.986 88.5028 131.785 89.3918 132.488C89.3408 132.546 89.2767 132.558 89.2188 132.616C88.0167 133.741 87.9468 135.634 89.0778 136.836C89.6598 137.469 90.4588 137.789 91.2578 137.789C91.9928 137.789 92.7277 137.52 93.3037 136.983C94.3777 135.98 94.7548 136.267 94.8828 136.357C96.1868 137.348 98.0668 137.092 99.0638 135.782C100.062 134.458 99.7988 132.585 98.4758 131.594C96.6348 130.194 94.4477 129.996 92.3257 130.757C91.0657 129.21 88.4578 127.266 91.1808 126.684C91.6218 126.588 92.1907 126.607 92.9327 126.723C96.0147 127.209 99.4408 129.357 101.372 131.767C102.28 132.898 103.035 134.401 102.555 135.884C101.909 137.879 99.6708 137.892 99.6198 140.417C99.5998 141.267 99.6968 142.034 99.1908 142.795C99.0188 143.045 97.4968 143.952 97.4968 143.978C97.6948 142.251 99.3637 140.659 98.3217 138.907ZM77.8177 123.742C77.1527 122.802 75.8418 122.572 74.9018 123.256C69.7108 127.015 69.9468 130.851 62.9528 127.732C60.3128 126.555 57.6847 125.341 54.9937 124.273C49.6227 122.15 45.2818 121.159 42.0658 115.955C40.4678 113.378 39.7898 110.917 39.7898 107.97C39.8478 105.349 40.7357 102.772 42.3467 100.394C45.6267 95.6628 50.8628 91.6988 56.5398 88.8668C62.1728 86.0788 68.6108 83.8358 74.3268 83.7718C77.0568 83.7518 80.4578 84.2508 82.7338 85.2808C85.1378 86.3478 86.4808 87.7998 87.2288 90.2488C88.5518 95.4398 86.6468 102.543 85.4188 109.327C85.1378 111.047 84.8558 112.76 84.6648 114.493C84.4858 116.11 84.9398 118.009 84.6458 119.556C84.1668 122.056 83.2588 119.211 83.0348 117.964C82.9778 117.625 82.4848 114.345 82.1718 114.332C83.0608 114.281 83.8788 113.686 84.1028 112.779C84.3778 111.654 83.6938 110.522 82.5688 110.247C80.2798 109.684 78.0288 110.362 76.4048 112.107C75.6188 112.957 75.6697 114.281 76.5197 115.067C76.9157 115.438 77.4338 115.623 77.9388 115.623C78.4248 115.623 78.8788 115.374 79.2688 115.041C78.9238 115.335 81.1618 123.762 81.1868 124.759C81.2258 126.268 81.2128 128.013 80.1068 129.151C78.4828 130.82 75.8997 127.904 75.7397 128.051C76.2447 127.559 76.7628 127.067 77.3248 126.664C78.2718 125.999 78.4957 124.688 77.8177 123.742ZM69.2578 62.2188C68.7528 60.6138 67.2058 59.0858 68.0558 57.3788C68.2608 56.9628 70.1397 55.4478 70.4977 56.0038C70.7667 56.4198 71.1628 56.7518 71.6678 56.8988C71.8018 56.9378 71.9428 56.9178 72.0768 56.9568C71.2968 58.9068 70.3758 60.6708 69.2578 62.2188ZM69.8907 70.5428C70.9967 70.1338 72.7037 69.9608 73.8607 70.5368C74.0397 70.6258 74.2058 70.7288 74.3528 70.8558C74.7818 71.2208 75.4208 72.0258 75.5168 72.5888C75.7028 73.6818 75.6897 73.3368 74.8517 73.8038C73.8287 74.3858 71.3478 74.6858 70.2288 74.2508C68.3938 73.5348 68.1447 71.1878 69.8907 70.5428ZM81.9228 52.3598C84.5188 52.3988 85.1838 53.0568 86.2258 55.3268C87.1408 57.6218 87.7088 60.5118 87.7408 63.4918C87.8748 66.1258 87.2748 68.3378 85.8928 69.7318C84.7228 70.9148 81.2837 73.3958 79.6527 72.2118C78.2147 71.1758 78.7767 68.2348 78.5277 66.7198C78.3487 65.5818 77.2357 64.8078 76.1357 64.9808C74.5507 65.2498 74.6268 67.0208 73.1308 67.4358C72.2558 67.6788 70.4968 67.3588 70.2858 66.3998C70.0168 65.2298 71.9988 63.4978 72.5488 62.6278C73.6358 60.8958 74.5178 59.0408 75.2148 57.1168C76.6728 56.9568 78.0537 56.5028 79.2357 55.6018C80.0987 54.9308 80.2337 53.7348 79.6577 52.8328C80.4197 52.6608 81.2008 52.4168 81.9228 52.3598ZM51.3108 42.1108C51.6748 37.9808 52.8258 33.9848 54.5648 30.4748C56.3748 27.0158 58.7968 24.0238 61.8408 22.3808C63.3688 21.5818 64.9738 21.0128 66.6868 20.7508C68.4518 20.4958 70.3438 20.4628 71.8848 20.8088C75.0748 21.4038 77.4148 23.2198 78.5918 26.3458C79.8838 29.4088 79.8638 33.3338 79.0078 37.0548C78.1258 40.7628 76.2578 44.4388 73.8668 47.8728C70.6318 52.4438 64.3977 58.6328 65.1787 49.3308C65.3447 47.3358 64.3668 45.1308 64.4688 43.4868C64.5457 42.1318 64.4817 40.7888 64.0977 39.8178C63.6887 38.7368 62.4488 38.1998 61.3928 38.6288C60.3128 39.0508 59.7818 40.2588 60.1978 41.3398C60.3838 41.8068 60.4978 43.1498 60.2168 44.3508C59.9618 45.4758 60.6647 46.5948 61.7957 46.8568C61.9497 46.8948 62.1087 46.9078 62.3647 46.8698C62.3257 48.4938 61.9877 50.8528 61.7957 52.2148C61.7257 52.6878 61.6688 53.1358 61.6048 53.5768C61.0478 53.4298 60.4728 53.3078 59.9868 53.3788C56.6878 53.7558 50.8888 55.4888 53.2288 49.5688C53.3628 49.2358 53.5168 48.8208 53.6568 48.4178C54.0338 48.7058 54.4687 48.8458 54.9167 48.8458C55.5427 48.8458 56.1568 48.5648 56.5728 48.0338C57.2758 47.1198 57.1097 45.8028 56.1957 45.0988C55.1667 44.3058 53.5238 43.4368 52.3788 43.0918C51.9958 42.9828 51.6248 43.0218 51.2598 43.1048C51.2858 42.7758 51.2858 42.4368 51.3108 42.1108ZM50.1667 58.0568C50.6017 57.6668 51.0938 57.4368 51.6378 57.5138C52.2898 57.6028 52.5768 58.1208 52.8588 58.6648C51.3438 60.1348 50.6087 62.3148 50.9727 64.9368C51.1837 66.4328 52.4627 67.5128 53.9327 67.5128C54.0667 67.5128 54.2078 67.4998 54.3488 67.4808C55.9858 67.2568 57.1238 65.7418 56.8938 64.1118C56.7848 63.3248 56.9257 62.9668 56.9637 62.9158C56.9637 62.9158 56.9958 62.8968 57.0908 62.8648C58.6638 62.3598 59.5327 60.6718 59.0287 59.1058C58.5807 57.7188 57.2187 56.9518 55.8127 57.1108C56.1517 55.9278 56.9698 55.0328 59.8408 55.9598C61.1518 56.3888 61.2408 57.3978 61.4708 59.0858C61.7008 60.7228 63.4658 61.5598 63.8488 63.1838C60.5568 60.7668 57.5777 68.3438 62.4297 68.3178C63.6697 68.3118 60.5948 74.0588 59.9358 74.6158C58.3568 75.9708 48.0627 80.0248 47.9987 75.7218C47.9987 75.5298 48.0118 75.3568 48.0308 75.2098C48.3758 72.8188 51.6168 75.0378 53.1068 75.0378C54.1938 75.0378 55.2547 74.7758 56.2007 74.2638C57.6527 73.4778 58.1958 71.6618 57.4088 70.2108C56.6168 68.7528 54.8067 68.2158 53.3557 69.0088C53.1767 69.0858 52.9077 69.0408 52.7737 69.0088C51.0287 68.5168 49.6987 70.8118 48.3947 69.7128C47.5887 69.0348 47.6467 67.1108 47.6527 66.1768C47.6527 64.5398 47.7998 62.9608 48.2598 61.5798C48.5488 60.6008 49.2137 58.9258 50.1667 58.0568ZM10.6938 45.6278C12.6058 42.3928 15.6418 39.9188 19.3058 38.7808C22.7708 37.5528 27.0988 37.8088 31.2168 38.7108C35.8908 39.7398 41.4397 42.1118 44.8607 45.5648C46.3117 47.0158 48.9148 50.1168 48.7038 52.3288C48.4028 55.3918 44.0298 56.6318 43.0138 59.9818C42.4318 61.8998 42.7387 63.4538 40.1877 62.9928C39.8427 62.9348 36.5427 61.4008 36.4727 61.5228C36.6397 61.2348 36.7667 60.9278 36.9587 60.6598C37.6237 59.7138 37.3998 58.4028 36.4538 57.7438C35.4948 57.0788 34.1968 57.3088 33.5318 58.2488C32.4128 59.8408 28.5128 65.7288 32.5218 66.6558C32.6748 66.6878 32.8288 66.7008 32.9758 66.7008C33.9348 66.7008 34.8047 66.0418 35.0157 65.0638C35.0797 64.7888 35.2018 64.5268 35.2848 64.2578C37.4838 65.1918 40.0417 65.6898 41.9847 67.1408C44.6767 69.1478 44.8367 72.0638 40.8207 72.5178C40.7247 71.9108 40.6287 71.2968 40.6227 70.6888C40.6167 69.5318 39.7338 68.4828 38.5128 68.6178C37.3878 68.6238 36.4798 69.5318 36.4538 70.6508C28.3728 70.5738 20.4188 69.8898 14.6078 65.7028C7.91276 61.2718 6.62776 52.0788 10.6938 45.6278ZM33.9658 89.7288C31.0118 90.5088 27.8798 90.7008 24.9578 90.2978C22.4828 89.9078 19.6448 88.6418 17.6818 86.9288C15.5778 85.2028 14.6448 83.0668 14.9388 82.0568C15.0158 80.8158 17.1888 78.7698 20.1818 77.4788C24.9958 75.4068 30.3667 73.0548 35.7177 74.0068C36.8947 74.2118 36.9138 74.1598 37.2338 75.1898C37.5018 76.0848 37.2848 77.8048 38.0778 78.4568C40.6098 80.5348 39.8738 75.9758 40.7948 75.4838C42.2778 74.6778 43.1538 77.3318 43.5188 78.2908C44.0618 79.7678 45.6798 80.7458 46.0058 82.1978C46.6068 84.7868 43.5888 86.0398 41.7418 86.7818C39.1508 87.8308 36.7148 89.0068 33.9658 89.7288ZM39.1638 175.228C38.6328 175.247 38.1217 175.241 37.6097 175.208C33.1217 174.953 29.4588 172.97 26.6068 169.141C21.4918 162.275 21.6778 152.589 25.5648 144.719C28.8058 138.159 34.8607 134.31 41.8867 132.865C45.3137 132.156 60.7218 131.363 63.2978 132.635C66.2068 134.073 63.8987 134.847 64.6527 137.072C65.4587 139.405 67.7278 138.651 69.4098 137.014C69.9918 136.458 70.0808 135.089 71.0778 135.109C72.6318 135.141 72.1778 136.797 71.8958 137.526C71.3718 138.869 70.6678 139.489 71.2888 141.049C71.8008 142.328 72.9258 143.351 73.4368 144.655C74.2488 146.726 72.8738 149.034 70.2278 148.606C68.8658 148.389 68.8408 146.669 67.5748 146.241C62.3008 144.476 65.9067 152.014 65.7267 153.619C65.2787 157.634 61.0338 160.255 59.0008 163.471C54.8208 170.082 47.0468 174.966 39.1638 175.228ZM100.79 197.547C99.1658 199.778 96.7688 201.466 94.2688 202.566C89.1728 204.772 83.1318 205.027 77.2368 203.96C71.3228 202.969 65.5628 200.507 60.8118 197.266C48.5178 188.865 58.2418 173.534 63.9318 164.551C65.2488 162.48 65.8498 159.992 67.3328 158.017C67.9398 157.186 68.6378 156.304 69.7498 156.451C70.7028 156.579 71.2328 157.922 72.3268 157.193C74.1608 155.979 71.3928 154.118 71.6808 152.475C72.0388 150.442 74.6277 149.56 76.3737 149.406C77.6907 149.291 79.9218 149.937 80.7338 151.088C81.2388 151.81 81.4368 154.406 80.6378 155.058C79.9088 155.653 79.7178 154.655 78.8028 154.451C77.3838 154.144 76.0217 155.333 76.2397 156.81L76.7448 160.102C76.9048 161.131 77.7938 161.867 78.8098 161.867C78.9178 161.867 79.0267 161.867 79.1357 161.848C80.8427 161.579 80.4907 159.7 81.0407 158.504C81.5967 157.315 83.3487 155.525 84.6017 155.064C86.7497 154.291 87.2547 155.326 88.5977 156.618C91.7757 159.693 93.4757 163.983 95.5667 167.787C98.9107 173.88 103.035 182.747 102.939 189.754C102.868 192.733 102.088 195.796 100.79 197.547ZM141.439 175.97C138.326 179.678 133.78 182.536 128.704 184.736C125.916 185.893 124.1 186.501 121.569 186.565C111.301 186.853 105.144 177.486 100.874 169.667C99.4927 167.154 97.8688 164.776 96.4948 162.257C95.5488 160.511 94.1038 158.255 94.1548 156.19C94.1808 155.052 94.7118 154.163 96.0088 154.048C97.6578 153.914 99.0517 155.448 99.0837 157.143C99.1157 158.396 96.9608 159.751 98.1178 161.03C98.5268 161.484 99.0968 161.714 99.6718 161.714C100.171 161.714 100.676 161.535 101.072 161.177C102.12 160.224 103.796 158.664 104.563 157.916C105.394 157.11 105.4 155.787 104.595 154.962C103.176 153.504 101.904 155.844 100.817 154.099C100.069 152.91 100.753 150.953 102.019 150.442C103.943 149.662 106.207 149.95 108.227 149.65C109.243 149.497 111.034 149.458 112.012 149.822C113.086 150.231 113.898 151.171 115.075 151.542C115.286 151.606 115.497 151.632 115.701 151.632C116.59 151.632 117.421 151.063 117.696 150.168C118.041 149.062 117.421 147.892 116.321 147.547C114.512 146.984 113.661 145.501 113.258 144.357C112.875 143.27 111.685 142.695 110.586 143.078C109.505 143.462 108.924 144.658 109.307 145.751C109.371 145.942 109.486 146.103 109.563 146.281C109.576 146.313 105.708 147.177 105.043 146.722C104.097 146.096 104.256 144.874 104.467 143.903C104.863 142.062 106.078 139.037 107.632 137.842C110.023 135.994 114.422 135.675 117.292 135.368C122.778 134.78 128.014 136.001 132.4 138.481C141.21 143.436 146.772 153.73 146.427 163.147C146.272 167.876 144.514 172.249 141.439 175.97ZM140.531 131.938C136.784 131.107 133.728 128.722 129.739 128.185C126.459 127.75 123.448 128.46 120.219 128.447C117.24 128.441 119.228 126.823 119.33 125.065C119.356 124.617 119.266 124.195 119.087 123.825C119.988 123.166 120.762 122.425 121.235 121.696C121.875 120.724 121.6 119.426 120.628 118.8C119.663 118.154 118.378 118.436 117.732 119.407C116.6 121.139 115.085 119.79 113.5 120.532C112.413 121.037 112.554 122.041 113.072 122.917C113.692 123.985 114.676 123.754 115.431 124.56C116.799 126.005 113.775 128.255 112.72 128.984C110.892 130.224 108.309 130.576 106.16 130.186C103.935 129.783 99.9138 125.729 104.082 124.687C104.523 124.579 105.041 124.451 105.578 124.451C105.527 125.608 106.415 126.586 107.675 126.638C108.781 126.638 109.708 125.768 109.759 124.65C109.829 123.269 109.567 121.249 109.164 120.046C108.8 118.946 107.617 118.339 106.524 118.723C105.45 119.081 104.874 120.213 105.188 121.286C104.536 121.484 103.929 121.644 103.379 121.779C101.461 122.245 99.7468 122.674 98.3148 124.931C97.9248 124.4 97.4838 123.895 96.9148 123.46C93.8968 121.152 90.8477 123.185 90.4897 118.045C90.0357 111.607 92.2738 104.651 95.3358 99.0688C99.2108 91.9908 104.868 89.4848 112.7 88.6538C121.753 87.8868 131.784 89.2998 138.811 93.6788C145.722 98.2308 150.818 106.766 151.418 115.378C151.822 121.204 148.389 133.69 140.531 131.938ZM150.428 133.236C152.321 127.162 156.105 123.237 162.32 121.83C170.005 120.085 176.308 126.791 183.623 127.75C180.368 128.447 182.357 132.014 179.454 132.999C177.754 133.574 175.03 133.472 176.91 136.042C177.325 136.598 177.958 136.898 178.61 136.898C179.032 136.898 179.466 136.77 179.838 136.502C180.382 136.106 181.814 135.658 183.092 135.626C184.243 135.594 185.157 134.642 185.132 133.497C185.094 131.541 184.569 132.091 186.244 130.934C187.747 129.892 189.696 128.434 191.576 128.312C196.007 128.018 200.258 137.135 194.485 136.394C194.031 136.336 193.506 136.285 192.944 136.24C192.969 136.189 192.982 136.119 193.002 136.068C193.456 135.013 192.97 133.779 191.902 133.325C190.84 132.858 189.607 133.357 189.146 134.425C188.596 135.717 188.129 137.66 188.084 138.932C188.04 140.089 188.935 141.061 190.175 141.112C191.262 141.112 192.132 140.261 192.228 139.188C192.912 139.22 193.539 139.29 194.108 139.36C195.923 139.577 197.349 139.258 198.551 140.901C200.244 143.196 198.845 145.792 197.381 147.723C193.493 152.869 188.462 157.792 182.164 159.743C174.211 162.313 165.292 159.787 158.822 154.404C152.231 149.213 148.043 140.896 150.428 133.236ZM158.081 165.657C158.106 165.395 158.164 165.139 158.19 164.871C158.267 164.832 158.35 164.801 158.42 164.762C161.483 166.431 164.762 167.703 168.234 168.336C173.943 169.384 184.153 164.666 183.61 173.764C183.412 177.338 184.517 181.238 186.646 184.256C188.724 187.325 191.556 189.518 194.389 191.27C195.527 191.979 196.786 192.619 198.065 193.226C198.366 196.289 198.692 199.351 198.864 202.394C198.934 203.538 199.069 204.67 199.159 205.814C188.226 190.585 174.249 177.153 158.081 165.657ZM193.538 171.853C193.347 169.89 193.442 167.876 193.832 165.901C194.771 161.131 196.869 156.969 199.599 152.948C201.185 150.615 202.809 147.098 205.162 145.474C206.728 144.393 210.999 143.728 212.239 145.743C213.237 147.354 211.51 151.976 211.305 153.939C210.443 153.67 209.496 153.824 208.952 154.591C208.294 155.544 208.537 156.848 209.482 157.507C210.576 158.268 211.803 158.645 213.044 158.645C214.003 158.645 214.982 158.421 215.915 157.954C216.957 157.436 217.372 156.183 216.861 155.147C216.387 154.188 215.275 153.785 214.278 154.144C214.648 150.851 214.635 147.469 215.493 144.247C215.838 142.975 216.337 140.596 217.653 139.912C220.178 138.62 222.071 143.32 222.174 143.268C221.534 143.556 220.876 143.831 220.198 144.003C219.086 144.303 218.414 145.441 218.715 146.567C218.958 147.506 219.802 148.12 220.736 148.12C220.915 148.12 221.088 148.107 221.266 148.056C223.856 147.379 228.983 145.627 226.796 141.765C229.494 142.513 232.928 146.79 234.635 148.996C235.92 150.645 236.598 152.378 237.512 154.315C244.295 168.713 236.189 182.158 221.074 186.614C216.126 188.13 210.819 188.353 205.768 187.049C198.481 185.164 194.216 178.834 193.538 171.853ZM307.616 331.368C306.644 334.993 304.381 338.183 301.159 340.262C299.975 341.099 298.563 341.674 297.08 342.155C295.283 337.161 292.655 334.911 286.517 333.063L283.704 332.225L281.805 334.463C278.059 338.9 275.86 343.739 274.357 348.938C273.967 347.46 273.526 345.997 272.963 344.596C271.889 342.084 270.457 339.673 268.68 337.621C268.693 336.419 268.424 335.217 267.382 333.874C267.919 333.708 268.449 333.497 268.961 333.171C271.403 331.662 272.566 328.753 272.617 326.222C272.611 324.726 272.265 323.313 271.716 321.995C273.96 322.341 276.409 322.699 278.513 322.974C278.43 323.3 278.385 323.632 278.276 323.946C277.893 325.04 278.468 326.228 279.548 326.612C279.785 326.695 280.022 326.734 280.251 326.734C283.09 326.734 283.908 318.838 282.048 317.419C279.548 315.526 279.024 320.033 278.922 320.021C276.256 319.664 272.829 319.139 270.252 318.75L269.466 318.635C268.788 317.976 268.028 317.42 267.177 317.049C268.443 315.406 269.895 314.204 271.377 313.577C271.633 314.127 271.883 314.683 272.055 315.265C272.311 316.179 273.149 316.774 274.063 316.774C274.249 316.774 274.447 316.748 274.638 316.697C275.725 316.384 276.352 315.271 276.083 314.178C283.883 312.087 291.728 310.616 298.447 313.078C306.087 315.544 309.802 324.053 307.616 331.368ZM239.251 342.953C238.566 343.317 237.876 343.759 237.191 344.015C234.679 344.673 233.867 344.226 232.255 342.314C230.759 340.345 229.423 337.71 228.605 334.86C227.767 332.353 227.742 330.064 228.701 328.344C229.577 326.446 231.917 324.815 234.532 323.338C234.762 323.21 235.031 323.102 235.28 322.986C234.717 323.568 234.519 324.444 234.851 325.237C235.357 326.445 236.188 328.383 236.61 329.277C236.962 330.038 237.715 330.486 238.503 330.486C238.797 330.486 239.097 330.422 239.385 330.288C240.421 329.814 240.874 328.594 240.408 327.545C240.535 327.513 240.663 327.482 240.791 327.449C242.307 327.046 243.777 326.669 245.229 326.503C245.249 326.663 245.28 326.835 245.305 326.995C243.707 330.173 242.691 333.548 242.383 337.569C241.009 338.113 239.807 338.976 238.912 340.178C238.253 341.047 238.452 342.237 239.251 342.953ZM245.274 323.51C243.439 323.683 241.668 324.117 240.018 324.559C239.744 324.629 239.468 324.693 239.2 324.763C239.027 324.354 238.855 323.951 238.715 323.618C238.337 322.729 237.43 322.275 236.515 322.39C238.625 321.393 240.831 320.472 243.119 319.533L243.733 320.524C244.123 321.144 244.487 321.725 245.274 322.295C245.357 322.353 245.44 322.378 245.523 322.43C245.44 322.788 245.325 323.139 245.274 323.51ZM246.744 331.119C246.489 331.815 249.608 333.893 249.244 335.46C248.707 337.71 247.237 336.617 245.824 336.892C245.689 336.892 245.581 336.924 245.453 336.931C245.676 334.852 246.08 332.909 246.744 331.119ZM246.163 346.168C246.866 344.147 248.733 338.502 251.162 338.035C255.753 337.159 253.24 345.643 256.392 347.875C256.686 349.198 257.108 350.464 257.728 351.302C258.137 351.852 258.77 352.14 259.41 352.14C259.845 352.14 260.279 352.005 260.656 351.724C261.584 351.034 261.775 349.723 261.085 348.802C260.778 348.393 260.305 347.127 260.247 345.9C260.196 344.743 259.147 343.791 258.06 343.905C257.862 343.912 257.69 343.982 257.51 344.046C257.114 342.467 256.801 340.108 256.628 338.746C256.564 338.267 256.5 337.819 256.442 337.385C257.011 337.371 257.592 337.34 258.053 337.142C260.827 336.003 267.49 334.296 265.386 340.082C264.35 339.954 263.199 340.332 262.771 341.367C262.336 342.441 262.854 343.663 263.922 344.097C265.137 344.589 266.959 344.973 268.199 344.998C268.569 344.998 268.908 344.87 269.216 344.704C269.279 345.017 269.375 345.33 269.427 345.65C269.995 348.699 269.983 351.755 269.708 354.735C268.877 354.748 268.046 354.837 267.221 355.08C261.211 356.883 258.194 364.3 256.186 371.569C255.905 371.607 255.611 371.696 255.342 371.71C252.107 371.991 249.364 370.865 247.389 368.174C245.324 365.566 244.294 361.78 244.116 357.977C243.969 354.166 244.782 350.113 246.163 346.168ZM257.434 331.368C258.002 332.237 258.961 332.711 259.934 332.711C260.497 332.711 261.065 332.558 261.571 332.225C264.364 330.397 265.151 327.085 263.63 323.581C262.971 322.072 261.206 321.375 259.692 322.04C258.183 322.699 257.486 324.457 258.144 325.972C258.464 326.695 258.425 327.078 258.4 327.136C258.4 327.136 258.381 327.174 258.292 327.226C258.158 327.322 258.068 327.455 257.953 327.558C258.158 325.858 257.026 323.556 256.662 321.753C256.329 320.135 254.769 319.1 253.088 319.439L251.86 318.237C251.732 318.115 251.591 318.045 251.457 317.943C251.24 317.763 258.81 311.492 260.024 311.249C262.032 310.872 264.455 313.474 263.081 315.405C261.847 317.15 259.781 314.926 258.234 315.814C256.137 317.022 256.86 319.829 258.694 320.698C260.702 321.651 261.846 319.553 263.541 320.002C265.938 320.635 267.159 323.87 267.141 326.088C267.121 327.546 266.815 328.774 266.162 329.938C265.753 330.628 264.999 331.267 264.071 331.894C263.847 331.977 263.592 332.035 263.413 332.278C262.921 332.578 262.499 332.873 261.897 333.167C261.967 333.205 262.044 333.23 262.115 333.269C260.485 333.921 258.829 334.606 257.506 334.606C256.112 334.554 255.767 333.595 255.089 332.029L254.865 331.524L253.899 331.032C251.905 329.996 250.715 327.816 251.323 325.604C251.489 328.117 253.286 330.501 256.137 329.613C256.501 329.491 256.763 329.338 257.006 329.165C256.859 329.897 256.986 330.69 257.434 331.368ZM269.837 310.96C268.417 311.631 267.049 312.673 265.809 313.996C265.944 313.785 266.11 313.594 266.238 313.37C266.833 312.136 267.664 310.71 266.884 308.517C265.202 304.496 262.536 305.345 266.366 300.851C268.239 298.658 270.854 296.593 273.347 295.129C275.988 293.588 278.941 292.566 281.875 292.156C284.362 291.874 287.432 292.328 289.784 293.454C292.277 294.547 293.748 296.356 293.728 297.405C293.997 298.62 292.456 301.183 289.917 303.223C286.222 306.26 280.263 308.51 275.264 312.072C274.695 310.755 274.004 309.489 273.116 308.37C272.406 307.462 271.077 307.321 270.176 308.031C269.274 308.748 269.121 310.058 269.837 310.96ZM329.544 224.202C336.743 226.44 341.711 231.765 342.926 238.702C344.371 245.735 343.047 253.349 338.227 258.681C326.418 272.35 312.283 257.025 305.199 246.003C305.909 246.118 306.695 246.201 307.52 246.201C308.466 246.201 309.463 246.048 310.442 245.779C310.544 246.841 311.401 247.684 312.558 247.684C313.708 247.639 314.61 246.674 314.572 245.517C314.495 243.471 314.015 241.432 313.172 239.616C312.693 238.568 311.433 238.101 310.403 238.599C309.348 239.072 308.888 240.319 309.381 241.367C309.572 241.796 309.694 242.249 309.835 242.703C308.651 243.067 307.31 243.131 305.794 242.914C307.149 243.112 304.644 238.547 304.644 238.535C304.746 236.739 305.027 236.662 306.248 235.345C308.013 233.427 311.401 232.532 313.709 231.439C313.85 232.302 314.515 233.024 315.429 233.165C315.532 233.185 315.647 233.191 315.748 233.191C316.765 233.191 317.66 232.449 317.82 231.414C318.139 229.291 317.346 227.329 315.639 226.024C314.718 225.327 313.408 225.5 312.704 226.42C312.192 227.091 312.295 227.916 312.672 228.619C311.08 229.361 308.421 230.754 305.889 232.103C305.947 231.975 306.036 231.866 306.087 231.745C307.909 227.404 307.417 224.821 312.308 223.504C317.627 222.073 324.34 222.571 329.544 224.202ZM287.214 184.064C290.327 174.749 299.605 172.39 308.363 174.512C322.652 177.965 325.976 197.989 320.472 209.484C318.637 213.32 314.935 217.322 311.105 219.254C307.308 221.159 304.085 219.759 300.211 219.107C300.185 217.394 299.277 216.07 298.478 214.919C298.108 214.388 297.744 213.826 297.43 213.225C298.254 212.714 298.663 211.704 298.306 210.751C297.91 209.67 296.714 209.121 295.62 209.517C294.578 209.901 293.088 210.828 292.141 211.659C291.285 212.433 291.202 213.756 291.975 214.613C293.075 215.866 298.951 216.716 293.918 219.165C292.339 219.932 291.055 219.318 289.782 218.302C288.304 217.132 287.327 215.086 287.109 213.245C287.033 212.631 288.1 208.015 288.445 208.418C288.841 208.885 289.36 209.236 289.98 209.236C290.178 209.236 290.382 209.216 290.587 209.153C291.687 208.82 292.313 207.657 291.986 206.544C291.667 205.483 291.679 204.274 291.82 203.846C292.172 202.753 291.564 201.57 290.465 201.218C289.36 200.841 288.183 201.48 287.831 202.573C285.606 209.548 286.124 199.402 286.149 197.03C286.198 192.932 285.891 188.002 287.214 184.064ZM287.036 224.112C288.065 222.872 291.651 221.286 293.915 221.701C294.683 221.842 295.296 222.213 295.615 222.897C295.89 223.492 295.628 223.926 295.315 224.304C294.841 223.978 294.304 223.716 293.704 223.569C292.604 223.313 291.447 223.972 291.166 225.09C290.885 226.208 291.568 227.347 292.687 227.628C292.936 227.686 293.588 227.852 293.473 229.502C293.397 230.653 294.266 231.656 295.423 231.733C295.468 231.733 295.519 231.733 295.564 231.733C296.658 231.733 297.578 230.889 297.655 229.783C297.758 228.165 297.412 226.765 296.709 225.685C297.118 225.18 297.527 224.623 297.956 224.54C299.963 224.163 301.286 226.592 301.517 228.606C301.709 230.345 303.352 242.108 299.33 241.156C297.738 240.785 298.55 239.379 298.409 238.33C298.479 238.317 298.55 238.324 298.614 238.298C299.694 237.889 300.244 236.687 299.835 235.606C299.439 234.513 298.231 233.982 297.144 234.372C296.754 234.513 296.39 234.513 296.115 234.397C295.053 233.898 293.82 234.359 293.334 235.42C292.855 236.462 293.309 237.709 294.363 238.189C294.855 238.425 295.412 238.477 295.955 238.541C295.578 240.824 290.393 240.267 290.042 238.362C290.042 238.349 289.588 235.914 289.588 235.914C289.747 235.958 289.875 236.093 290.055 236.093C290.157 236.093 290.266 236.087 290.374 236.068C291.512 235.895 292.299 234.828 292.119 233.683L291.473 229.38C291.3 228.235 290.24 227.442 289.101 227.615C287.963 227.781 287.163 228.849 287.336 229.987C287.336 229.987 287.727 232.621 287.732 232.634C287.259 229.463 284.28 227.45 287.036 224.112ZM283.858 252.422C284.248 253.087 284.945 253.458 285.673 253.458C286.025 253.458 286.396 253.368 286.722 253.176L289.164 251.731C290.168 251.156 290.506 249.877 289.925 248.873C289.547 248.221 288.857 247.882 288.154 247.87C288.307 246.988 288.493 246.086 288.743 245.198C289.171 245.358 289.587 245.575 290.014 245.722C291.184 246.035 292.361 246.291 293.543 246.489C293.773 247.73 294.08 248.964 294.522 250.185C293.505 250.415 292.79 251.329 292.891 252.397C293 253.478 293.908 254.283 294.976 254.283C295.046 254.283 295.11 254.283 295.18 254.277C296.58 254.136 297.808 253.759 298.946 253.126C299.957 252.557 300.314 251.285 299.752 250.274C299.292 249.456 298.358 249.098 297.477 249.29C297.138 249.367 296.908 247.11 296.933 246.898C302.828 246.502 309.835 259.973 311.952 264.327L313.358 267.229C313.639 268.035 313.921 268.885 314.087 269.78C315.698 276.704 308.819 281.435 301.71 280.713C294.574 280.265 288.577 274.703 285.956 266.935C284.339 262.223 283.629 257.013 283.591 251.642C283.627 251.911 283.717 252.179 283.858 252.422ZM251.616 194.472C252.185 189.735 253.963 185.01 257.025 181.922C259.921 178.68 264.16 177.089 268.066 177.901C272.068 178.502 275.508 181.731 277.708 186.052C281.07 192.688 281.563 200.578 282.215 207.841C282.599 212.125 284.191 217.201 281.704 221.139C279.728 224.265 278.712 224.112 276.883 221.548C276.481 220.979 274.946 218.831 274.831 218.3C274.568 217.079 275.848 215.992 275.432 214.802C275.036 213.709 273.846 213.14 272.753 213.53C271.845 213.856 270.496 214.06 269.249 213.249C268.284 212.603 266.986 212.872 266.353 213.843C265.713 214.808 265.982 216.1 266.947 216.739C268.118 217.512 269.441 217.89 270.809 217.954C271.646 219.814 274.088 222.199 273.711 224.232C265.745 224.149 258.06 214.412 254.524 208.14C252.082 203.819 250.951 199.171 251.616 194.472ZM258.258 228.025C261.25 226.491 265.56 226.67 269.83 227.437C273.608 228.115 277.272 228.096 279.727 231.452C282.15 234.751 280.827 237.871 276.632 237.385C276.511 236.343 275.839 235.442 274.739 235.339C273.627 235.281 272.565 236.074 272.457 237.225C272.367 238.139 272.233 240.102 272.169 241.31C272.111 242.467 273 243.452 274.26 243.509C275.826 243.586 276.53 241.84 276.504 240.555C286.823 237.671 279.554 251.75 277.501 255.298C274.586 260.323 270.558 263.667 264.42 262.893C257.337 261.998 253.002 254.844 251.685 247.28C250.299 239.776 252.198 231.292 258.258 228.025ZM235.038 292.483C236.841 286.518 239.463 281.589 243.139 276.512C244.923 274.038 248.081 269.505 251.233 265.017C252.601 266.251 254.085 267.376 255.773 268.22C256.987 268.795 258.567 269.396 259.954 269.69C260.639 269.805 260.81 269.857 261.897 269.991C262.569 270.049 263.24 270.08 263.918 270.093C266.616 270.099 269.531 269.588 272.057 268.207C277.05 265.394 277.53 262.99 279.263 269.479C280.567 274.409 282.549 279.024 286.174 282.726C286.448 283.008 286.781 283.225 287.069 283.487C284.857 283.225 282.588 283.301 280.266 283.749C274.391 284.887 265.67 288.621 262.397 293.704C260.21 297.099 259.412 298.557 257.903 304.841C257.213 307.687 256.01 308.172 252.928 307.155C251.106 306.548 243.338 302.047 231.299 304.624C231.553 300.903 233.925 296.159 235.038 292.483ZM235.78 313.53C239.136 312.757 241.579 314.247 243.809 315.621C239.973 315.934 236.119 316.434 232.161 317.725C229.77 318.493 227.258 319.694 225.039 321.631C228.28 317.43 231.834 314.451 235.78 313.53ZM131.203 353.201C129.113 345.235 113.263 322.225 111.045 318.223C98.8528 296.159 100.1 289.977 99.2108 288.468C95.7198 303.914 111.122 326.113 115.201 333.343C120.021 341.898 124.772 351.679 126.332 361.371C119.804 356.154 103.162 344.198 95.3498 346.142C105.937 348.341 122.266 360.898 128.148 369.452C135.271 379.804 140.724 397.673 144.477 409.379C140.979 398.473 123.001 381.626 114.351 374.887C107.401 369.472 99.9468 364.76 93.0098 359.403C89.3778 356.602 84.6148 354.998 80.2808 352.926C77.3978 351.551 74.7057 349.972 72.6537 347.702C68.4027 342.997 73.5237 343.943 77.4677 341.072C83.7907 336.463 78.2477 339.742 76.1827 334.666C73.5297 328.126 85.3708 330.594 88.4518 330.978C91.0288 331.304 107.236 334.526 108.022 336.368C103.712 326.189 95.6628 317.872 87.0898 311.088C79.0338 304.721 68.4977 301.114 61.7657 292.912C63.3127 292.765 66.3497 291.147 67.8907 291C65.9977 288.679 63.2808 287.215 61.2668 284.964C65.6138 280.265 76.4958 281.595 82.6978 281.403C77.1548 269.39 69.9808 260.695 69.8918 246.687C72.2828 247.25 74.7447 247.116 77.1927 247.519C76.9877 247.487 77.9787 241.522 78.7777 241.017C80.1777 240.122 81.3547 242.187 82.4727 242.347C87.6967 243.082 94.9147 250.185 99.4987 252.794L99.8508 245.499C99.9148 244.163 100.56 242.436 101.245 240.602C101.514 239.886 101.788 239.151 102.044 238.39C102.172 238.006 107.83 245.404 108.361 246.567C110.707 251.752 113.162 258.075 114.07 263.746C115.304 271.45 115.31 279.672 115.828 287.427C115.994 289.965 115.572 292.702 116.192 295.15C125.424 290.272 124.107 274.442 130.654 266.815C132.156 265.057 136.632 260.39 139.081 260.594C143.531 260.965 141.651 267.192 143.754 269.647C146.298 272.62 150.531 270.261 153.734 269.314C154.36 274.71 151.209 279.965 148.722 284.504C145.928 289.6 144.01 294.491 142.648 300.155C141.536 304.759 138.722 316.471 141.791 320.639C148.344 315.173 160.511 304.726 169.576 305.193C174.186 305.429 175.254 309.847 174.851 313.914C174.377 318.684 169.921 321.784 169.282 326.068C168.643 330.364 172.524 330.869 176.155 330.856C176.283 334.52 172.959 338.286 170.893 341.073C168.124 344.806 168.687 345.011 173.163 346.06C173.63 353.137 157.973 356.481 154.303 361.276C145.262 373.085 147.877 384.619 148.063 398.632C144.221 391.932 142.041 385.001 139.375 377.783C136.779 370.737 131.971 363.283 133.467 355.483C134.235 351.449 140.832 336.174 151.407 329.328C141.311 329.329 133.761 348.483 131.203 353.201ZM110.041 454.14C108.558 453.533 105.08 452.536 101.499 451.244C96.1087 449.306 90.4827 446.711 91.0457 443.808C91.5957 440.976 98.1297 437.613 100.546 436.596C95.9617 430.337 98.4297 430.491 105.028 429.781C98.5697 420.281 118.972 429.13 122.15 434.941C127.846 445.337 132.948 457.158 134.994 468.877C128.115 461.154 119.318 457.931 110.041 454.14ZM212.635 419.334C209.4 419.545 206.063 418.541 202.949 417.94C200.877 426.833 202.61 435.86 204.764 444.543C206.662 452.234 211.624 462.073 210.697 470.085C210.237 473.991 209.099 477.507 207.45 480.717C201.095 493.005 187.177 500.632 175.451 506.681C162.805 513.196 151.195 521.603 141.688 532.216C141.758 531.98 141.829 531.737 141.905 531.506C145.147 521.327 148.548 511.207 151.725 501.156C155.1 490.492 159.346 480.78 164.007 470.583C180.738 433.962 197.757 397.366 211.017 359.307C212.877 353.962 214.667 348.591 216.368 343.189C217.525 339.506 218.549 328.938 221.215 337.224C222.423 340.631 223.984 344.135 226.803 347.198C229.987 350.644 236.578 350.765 238.01 355.465C238.714 357.754 237.646 361.155 238.024 363.642C238.491 366.782 239.59 369.825 241.31 372.485C243.918 376.608 249.199 379.485 254.218 379.505L253.943 380.688C252.773 385.349 252.939 395.316 253.125 406.87C253.298 417.751 253.592 435.595 251.782 440.224C251.315 440.307 250.881 440.033 250.695 439.911C246.482 437.072 244.807 421.599 243.701 411.364C242.192 397.484 241.055 388.769 236.822 384.793C236.822 384.793 231.272 379.589 231.259 379.583C231.54 379.845 229.846 385.977 229.488 386.5C224.884 393.265 225.946 385.426 220.479 386.583C218.458 387.019 216.746 395.1 215.927 397.146C212.898 404.77 212.884 411.33 212.635 419.334ZM360.476 387.636C356.045 390.596 346.302 395.634 349.997 400.391C355.942 408.056 371.037 406.951 376.05 415.632C371.217 420.735 347.568 426.732 351.979 434.058C353.942 437.313 361.314 437.389 362.452 441.5C365.751 453.449 329.027 448.903 324.245 448.769C307.13 448.29 298.423 453.156 284.248 462.886C295.846 462.598 307.942 462.873 319.118 466.281C323.682 467.675 337.991 476.325 336.425 482.987C335.293 487.801 321.068 485.557 317.296 485.494C314.412 485.442 302.393 484.029 301.715 486.453C300.679 490.192 311.011 495.269 310.89 499.233C310.737 504.257 290.015 497.02 285.508 496.043C268.598 492.386 248.963 489.688 231.669 490.769C238.165 490.494 242.717 488.55 248.35 485.424C261.866 477.899 264.525 466.231 273.348 455.08C281.992 444.167 295.833 439.097 308.831 435.574C299.023 435.791 288.941 438.15 280.163 441.89C284.107 440.208 290.296 430.216 293.416 426.687C300.257 418.913 308.396 412.954 315.582 405.666C318.85 402.353 322.295 399.119 324.968 395.296C327.41 391.799 329.884 386.568 338.26 371.557C318.83 399.956 310.09 403.653 299.676 413.409C292.1 420.499 284.153 428.574 278.572 437.288C282.67 424.367 279.588 409.707 279.588 396.032C276.891 404.573 276.392 413.492 276.098 423.478C275.785 433.835 271.354 448.726 265.338 456.935C255.556 470.265 241.822 485.776 223.845 484.222C226.901 471.972 225.213 465.566 220.565 453.712C218.768 449.128 216.224 443.508 216.019 438.56C215.943 436.642 215.68 434.021 217.17 432.532C217.675 432.026 222.316 429.923 222.355 431.291C222.227 427.168 221.07 422.941 220.949 418.984C220.872 416.58 224.983 404.497 223.219 402.981C224.843 404.375 226.487 405.755 228.327 406.249C229.095 402.662 231.562 399.19 232.796 395.879C235.233 405.552 236.53 416.068 238.083 426.132C238.991 432.014 239.26 437.883 241.223 443.586C242.809 448.195 245.782 452.313 246.786 457.095C252.648 451.431 259.732 442.64 260.698 434.45C263.249 412.936 257.501 385.329 268.37 365.625C270.518 366.238 274.162 369.397 276.26 369.34C279.904 369.237 279.655 364.308 280.114 361.681C280.959 356.905 281.316 346.592 285.466 343.236C291.885 338.038 291.77 360.146 291.712 362.985C291.546 372.594 292.46 382.46 292.729 392.056C301.219 390.265 305.024 371.482 307.62 364.832C310.714 356.866 315.963 347.935 321.449 341.611C324.761 345.632 324.575 351.891 329.415 352.576C335.942 353.497 343.078 345.281 347.406 341.611C351.76 337.935 357.136 334.291 360.902 341.106C363.914 346.566 360.212 354.308 359.035 359.8C355.525 376.16 373.504 364.537 376.905 374.076C377.257 375.086 376.828 376.192 375.894 377.349C372.521 381.511 362.688 386.153 360.476 387.636Z"/>
</svg>
